<svg width="21" height="18" viewBox="0 0 21 18" fill="none" xmlns="http://www.w3.org/2000/svg">
<path opacity="0.2" d="M0.128 9.384C0.128 15.128 2.288 18 6.608 18C8.896 18 10.544 17.232 11.552 15.696C12.56 14.16 13.064 12.056 13.064 9.384C13.064 6.728 12.56 4.632 11.552 3.096C10.544 1.56 8.896 0.792 6.608 0.792C2.288 0.792 0.128 3.656 0.128 9.384ZM9.728 9.384C9.728 11.128 9.512 12.472 9.08 13.416C8.664 14.344 7.84 14.808 6.608 14.808C5.36 14.808 4.52 14.344 4.088 13.416C3.672 12.472 3.464 11.128 3.464 9.384C3.464 7.656 3.672 6.328 4.088 5.4C4.52 4.456 5.36 3.984 6.608 3.984C7.84 3.984 8.664 4.456 9.08 5.4C9.512 6.328 9.728 7.656 9.728 9.384ZM14.4521 4.224V1.056H20.5481V18H16.9961V4.224H14.4521Z" fill="#232536"/>
</svg>
