<svg width="27" height="18" viewBox="0 0 27 18" fill="none" xmlns="http://www.w3.org/2000/svg">
<path opacity="0.2" d="M0.128 9.384C0.128 15.128 2.288 18 6.608 18C8.896 18 10.544 17.232 11.552 15.696C12.56 14.16 13.064 12.056 13.064 9.384C13.064 6.728 12.56 4.632 11.552 3.096C10.544 1.56 8.896 0.792 6.608 0.792C2.288 0.792 0.128 3.656 0.128 9.384ZM9.728 9.384C9.728 11.128 9.512 12.472 9.08 13.416C8.664 14.344 7.84 14.808 6.608 14.808C5.36 14.808 4.52 14.344 4.088 13.416C3.672 12.472 3.464 11.128 3.464 9.384C3.464 7.656 3.672 6.328 4.088 5.4C4.52 4.456 5.36 3.984 6.608 3.984C7.84 3.984 8.664 4.456 9.08 5.4C9.512 6.328 9.728 7.656 9.728 9.384ZM15.0521 15.336C20.4761 11.576 23.1881 8.456 23.1881 5.976C23.1881 5.224 23.0041 4.632 22.6361 4.2C22.2841 3.768 21.7241 3.552 20.9561 3.552C19.3721 3.552 18.5321 4.632 18.4361 6.792H15.1481C15.2441 4.792 15.8521 3.28 16.9721 2.256C18.0921 1.216 19.5081 0.696 21.2201 0.696C22.9641 0.696 24.3001 1.152 25.2281 2.064C26.1721 2.96 26.6441 4.16 26.6441 5.664C26.6441 6.848 26.2921 8.04 25.5881 9.24C24.9001 10.424 24.0201 11.52 22.9481 12.528C21.8761 13.52 20.7481 14.376 19.5641 15.096H26.9801V17.856H15.0521V15.336Z" fill="#232536"/>
</svg>
