<svg width="28" height="19" viewBox="0 0 28 19" fill="none" xmlns="http://www.w3.org/2000/svg">
<path opacity="0.2" d="M0.128 9.384C0.128 15.128 2.288 18 6.608 18C8.896 18 10.544 17.232 11.552 15.696C12.56 14.16 13.064 12.056 13.064 9.384C13.064 6.728 12.56 4.632 11.552 3.096C10.544 1.56 8.896 0.792 6.608 0.792C2.288 0.792 0.128 3.656 0.128 9.384ZM9.728 9.384C9.728 11.128 9.512 12.472 9.08 13.416C8.664 14.344 7.84 14.808 6.608 14.808C5.36 14.808 4.52 14.344 4.088 13.416C3.672 12.472 3.464 11.128 3.464 9.384C3.464 7.656 3.672 6.328 4.088 5.4C4.52 4.456 5.36 3.984 6.608 3.984C7.84 3.984 8.664 4.456 9.08 5.4C9.512 6.328 9.728 7.656 9.728 9.384ZM21.3881 0.407999C22.5401 0.407999 23.5241 0.607999 24.3401 1.008C25.1721 1.408 25.7961 1.96 26.2121 2.664C26.6441 3.368 26.8601 4.152 26.8601 5.016C26.8601 6.104 26.5641 7 25.9721 7.704C25.3801 8.392 24.5961 8.816 23.6201 8.976V9.096C25.9881 9.8 27.1721 11.192 27.1721 13.272C27.1721 14.728 26.6841 15.912 25.7081 16.824C24.7321 17.72 23.3561 18.168 21.5801 18.168C19.6921 18.168 18.1881 17.704 17.0681 16.776C15.9481 15.832 15.3241 14.416 15.1961 12.528H18.5081C18.5881 13.392 18.8681 14.08 19.3481 14.592C19.8441 15.088 20.5401 15.336 21.4361 15.336C22.2041 15.336 22.8041 15.128 23.2361 14.712C23.6681 14.28 23.8841 13.72 23.8841 13.032C23.8841 12.216 23.5721 11.592 22.9481 11.16C22.3241 10.728 21.4041 10.512 20.1881 10.512H19.4921V7.752H20.1881C22.4281 7.784 23.5481 7.008 23.5481 5.424C23.5481 4.736 23.3481 4.2 22.9481 3.816C22.5481 3.416 22.0041 3.216 21.3161 3.216C20.5961 3.216 20.0041 3.448 19.5401 3.912C19.0761 4.36 18.8121 4.992 18.7481 5.808H15.4361C15.5321 4.08 16.0921 2.752 17.1161 1.824C18.1401 0.879999 19.5641 0.407999 21.3881 0.407999Z" fill="#232536"/>
</svg>
