<svg width="29" height="19" viewBox="0 0 29 19" fill="none" xmlns="http://www.w3.org/2000/svg">
<path opacity="0.2" d="M0.128 9.384C0.128 15.128 2.288 18 6.608 18C8.896 18 10.544 17.232 11.552 15.696C12.56 14.16 13.064 12.056 13.064 9.384C13.064 6.728 12.56 4.632 11.552 3.096C10.544 1.56 8.896 0.792 6.608 0.792C2.288 0.792 0.128 3.656 0.128 9.384ZM9.728 9.384C9.728 11.128 9.512 12.472 9.08 13.416C8.664 14.344 7.84 14.808 6.608 14.808C5.36 14.808 4.52 14.344 4.088 13.416C3.672 12.472 3.464 11.128 3.464 9.384C3.464 7.656 3.672 6.328 4.088 5.4C4.52 4.456 5.36 3.984 6.608 3.984C7.84 3.984 8.664 4.456 9.08 5.4C9.512 6.328 9.728 7.656 9.728 9.384ZM27.4121 3.696H19.3721V7.968C19.7401 7.536 20.2441 7.192 20.8841 6.936C21.5401 6.664 22.2601 6.528 23.0441 6.528C24.2121 6.528 25.1801 6.784 25.9481 7.296C26.7321 7.792 27.3081 8.464 27.6761 9.312C28.0601 10.144 28.2521 11.072 28.2521 12.096C28.2521 13.904 27.7401 15.352 26.7161 16.44C25.7081 17.528 24.2601 18.072 22.3721 18.072C21.1401 18.072 20.0681 17.856 19.1561 17.424C18.2441 16.976 17.5321 16.36 17.0201 15.576C16.5081 14.776 16.2281 13.848 16.1801 12.792H19.4681C19.5961 13.512 19.8921 14.088 20.3561 14.52C20.8201 14.936 21.4361 15.144 22.2041 15.144C23.1321 15.144 23.8201 14.864 24.2681 14.304C24.7321 13.728 24.9641 12.968 24.9641 12.024C24.9641 11.128 24.7241 10.432 24.2441 9.936C23.7641 9.44 23.0841 9.192 22.2041 9.192C21.5641 9.192 21.0201 9.336 20.5721 9.624C20.1241 9.896 19.7961 10.264 19.5881 10.728H16.3001V0.719999H27.4121V3.696Z" fill="#232536"/>
</svg>
