<svg width="28" height="19" viewBox="0 0 28 19" fill="none" xmlns="http://www.w3.org/2000/svg">
<path opacity="0.2" d="M0.128 9.384C0.128 15.128 2.288 18 6.608 18C8.896 18 10.544 17.232 11.552 15.696C12.56 14.16 13.064 12.056 13.064 9.384C13.064 6.728 12.56 4.632 11.552 3.096C10.544 1.56 8.896 0.792 6.608 0.792C2.288 0.792 0.128 3.656 0.128 9.384ZM9.728 9.384C9.728 11.128 9.512 12.472 9.08 13.416C8.664 14.344 7.84 14.808 6.608 14.808C5.36 14.808 4.52 14.344 4.088 13.416C3.672 12.472 3.464 11.128 3.464 9.384C3.464 7.656 3.672 6.328 4.088 5.4C4.52 4.456 5.36 3.984 6.608 3.984C7.84 3.984 8.664 4.456 9.08 5.4C9.512 6.328 9.728 7.656 9.728 9.384ZM24.2681 5.664C24.0121 4 23.1641 3.168 21.7241 3.168C20.6041 3.168 19.7881 3.664 19.2761 4.656C18.7641 5.632 18.5401 7.168 18.6041 9.264C18.8601 8.496 19.3561 7.888 20.0921 7.44C20.8441 6.976 21.7161 6.744 22.7081 6.744C24.3401 6.744 25.6201 7.24 26.5481 8.232C27.4921 9.208 27.9641 10.6 27.9641 12.408C27.9641 13.528 27.7401 14.52 27.2921 15.384C26.8441 16.248 26.1721 16.928 25.2761 17.424C24.3961 17.92 23.3241 18.168 22.0601 18.168C19.5961 18.168 17.9001 17.408 16.9721 15.888C16.0441 14.352 15.5801 12.24 15.5801 9.552C15.5801 6.464 16.0761 4.176 17.0681 2.688C18.0761 1.2 19.7001 0.456 21.9401 0.456C23.6521 0.456 24.9641 0.944 25.8761 1.92C26.7881 2.896 27.3081 4.144 27.4361 5.664H24.2681ZM18.8921 12.168C18.8921 13.064 19.1481 13.808 19.6601 14.4C20.1881 14.976 20.9561 15.264 21.9641 15.264C22.8281 15.264 23.5161 15.008 24.0281 14.496C24.5401 13.984 24.7961 13.272 24.7961 12.36C24.7961 11.4 24.5321 10.664 24.0041 10.152C23.4921 9.64 22.7961 9.384 21.9161 9.384C21.0841 9.384 20.3721 9.624 19.7801 10.104C19.1881 10.584 18.8921 11.272 18.8921 12.168Z" fill="#232536"/>
</svg>
